PathFileType	4	(X/Y/Z)	D:\TRACE\spot_10-12-23\spot_arm_body_motion_3_3-platform.trc
DataRate	CameraRate	NumFrames	NumMarkers	Units	OrigDataRate	OrigDataStartFrame	OrigNumFrames
100.00	100.00	      66	5	mm	100.00	6126	      7000
Frame#	Time	Left_Front			Right_Front			Left_Aft			Right_Aft			Post			
		X1	Y1	Z1	X2	Y2	Z2	X3	Y3	Z3	X4	Y4	Z4	X5	Y5	Z5	

6126	61.250	-759.04559	20.52269	-638.27081	813.70483	25.31539	-631.12305	-675.92719	-4.79492	499.71103	741.28448	-1.84623	585.84711	24.08915	765.01453	-940.68030	
6127	61.260	-759.05798	20.99331	-638.12744	813.80145	25.67678	-631.07098	-675.89270	-4.97489	499.65948	741.44885	-2.11440	585.92926	24.05931	765.47137	-940.20026	
6128	61.270	-759.06708	21.33390	-637.97070	813.72504	26.11252	-631.00128	-675.83972	-5.22746	499.71429	741.45276	-2.39325	586.07007	24.00186	765.99969	-939.67023	
6129	61.280	-759.00262	21.52674	-637.74280	813.67804	26.51874	-630.87152	-675.83124	-5.43852	499.82056	741.47156	-2.59893	586.14893	24.14895	766.48041	-939.00372	
6130	61.290	-758.94653	21.94936	-637.71051	813.66815	26.94047	-630.77368	-675.80359	-5.73239	499.88910	741.39600	-2.91178	586.22009	24.29921	767.10638	-938.17047	
6131	61.300	-758.96558	22.33989	-637.69897	813.81238	27.36680	-630.57733	-675.77716	-6.10462	500.06125	741.50623	-3.35623	586.27966	24.36344	767.86328	-937.75879	
6132	61.310	-758.88611	22.79719	-637.66486	813.89435	27.68851	-630.44385	-675.82727	-6.42767	500.15573	741.38184	-3.74788	586.37115	24.14979	768.29730	-937.23340	
6133	61.320	-758.96808	23.38162	-637.48175	813.76984	28.10626	-630.31409	-675.80066	-6.75810	500.27997	741.48065	-4.03930	586.38177	24.28013	768.82416	-936.72589	
6134	61.330	-758.92902	23.83359	-637.33521	813.73145	28.45568	-630.21368	-675.84772	-6.97927	500.29626	741.40851	-4.40728	586.42560	24.02600	769.50079	-936.13885	
6135	61.340	-758.91345	24.10721	-637.21606	813.75360	28.71994	-630.05786	-675.83685	-7.21294	500.29520	741.39862	-4.83812	586.54742	23.90935	770.21368	-935.83893	
6136	61.350	-758.76935	24.19275	-637.14288	813.70428	29.17038	-629.98981	-675.81702	-7.48270	500.35480	741.35052	-5.22720	586.64331	24.01608	770.81470	-935.36609	
6137	61.360	-758.91699	24.72703	-637.05865	813.67450	29.69924	-629.88293	-675.85291	-7.72031	500.49380	741.22443	-5.51975	586.71545	24.25300	771.35748	-934.71637	
6138	61.370	-759.06464	25.23089	-636.77069	813.67633	30.23022	-629.84436	-675.85901	-7.93991	500.53735	741.21265	-5.69466	586.78705	24.23615	771.88062	-934.03284	
6139	61.380	-759.14545	25.84142	-636.68182	813.63971	30.64924	-629.75317	-675.87189	-8.30827	500.67584	741.25940	-5.95557	586.85608	24.21692	772.34650	-933.46747	
6140	61.390	-759.16315	26.26426	-636.60834	813.58026	30.95390	-629.64276	-675.89502	-8.61038	500.80020	741.13446	-6.45959	586.91156	24.21682	773.15826	-932.83984	
6141	61.400	-759.25323	26.63563	-636.48035	813.50250	31.31330	-629.46802	-675.93500	-9.00613	501.21744	741.06592	-6.85614	587.07159	23.89059	773.92761	-932.13794	
6142	61.410	-759.48816	26.95113	-636.41016	813.36713	31.69197	-629.35638	-676.21606	-9.42094	501.18939	740.93768	-7.26866	587.22711	23.61760	774.36517	-931.53943	
6143	61.420	-759.76691	27.34057	-636.22736	813.13348	32.10994	-629.25708	-676.42578	-9.71584	501.22089	740.75861	-7.60324	587.20227	23.25709	774.77527	-930.94684	
6144	61.430	-759.77887	27.61553	-636.10400	813.02991	32.54698	-629.14838	-676.64679	-9.96023	501.26718	740.54822	-7.90010	587.23102	23.22312	775.47540	-930.36633	
6145	61.440	-759.95276	28.04790	-636.07568	812.72992	32.97381	-629.11548	-676.84314	-10.14190	501.30374	740.42651	-8.19741	587.30432	23.26562	776.25940	-929.56592	
6146	61.450	-760.11981	28.41633	-636.02496	812.56195	33.31294	-629.00354	-676.89630	-10.39514	501.42938	740.26373	-8.43847	587.38660	23.08082	776.75360	-929.02576	
6147	61.460	-760.34918	28.83200	-635.91998	812.50916	33.53504	-628.89368	-677.03229	-10.53718	501.45105	740.16022	-8.78723	587.50024	22.83533	777.05957	-928.48846	
6148	61.470	-760.52118	29.22200	-635.74426	812.25684	33.85315	-628.86841	-677.24951	-10.84199	501.61777	740.03662	-9.09708	587.65991	22.52334	777.53290	-927.93121	
6149	61.480	-760.64673	29.58307	-635.58173	812.14087	34.32085	-628.69666	-677.58435	-11.04078	501.66937	739.87244	-9.29842	587.80121	22.28857	778.19031	-927.52240	
6150	61.490	-760.84204	29.78585	-635.46606	811.89789	34.91838	-628.61121	-677.80414	-11.32872	501.74521	739.66766	-9.54939	587.85052	22.05105	778.68909	-927.25165	
6151	61.500	-761.09943	30.22349	-635.52344	811.65338	35.18409	-628.44208	-678.03015	-11.64736	501.78317	739.33551	-9.86995	587.85815	21.86097	779.33020	-926.82013	
6152	61.510	-761.25177	30.57702	-635.52454	811.43951	35.59621	-628.25433	-678.06689	-12.01936	502.02698	739.05444	-10.22297	587.89056	21.62721	779.82910	-926.33508	
6153	61.520	-761.45813	30.85007	-635.42560	811.26660	35.84533	-628.18970	-678.30353	-12.17313	502.01657	738.83661	-10.54612	587.92468	21.41591	780.26160	-926.02777	
6154	61.530	-761.78027	31.45171	-635.31329	810.89240	36.14156	-628.09509	-678.60583	-12.39530	502.15289	738.55164	-10.92631	588.01355	21.18149	780.74762	-925.81433	
6155	61.540	-762.20172	32.21772	-635.03705	810.57678	36.40429	-628.03198	-678.89209	-12.63123	502.15442	738.34595	-11.23598	588.18774	20.83597	781.37970	-925.24231	
6156	61.550	-762.30896	32.59033	-634.93408	810.24127	36.94955	-627.92255	-679.34406	-12.89895	502.14792	738.04474	-11.48905	588.34143	20.46188	781.79968	-924.70612	
6157	61.560	-762.72229	32.48539	-634.82843	810.05640	36.87414	-627.88568	-679.60840	-12.90118	502.18558	737.76678	-11.64281	588.44434	20.27659	782.44043	-924.10455	
6158	61.570	-763.06226	32.50513	-634.74139	809.79504	37.10667	-627.84143	-679.87146	-13.08004	502.23642	737.36572	-12.05286	588.42859	20.29252	782.67267	-923.50421	
6159	61.580	-763.33221	32.78888	-634.69745	809.42828	37.74269	-627.78259	-680.21692	-13.44255	502.25671	737.08752	-12.32520	588.39600	20.00454	782.89380	-922.88568	
6160	61.590	-763.58246	33.31176	-634.61401	809.29053	38.09446	-627.55890	-680.49042	-13.65083	502.29962	736.87970	-12.56127	588.42798	19.50974	783.43939	-922.32788	
6161	61.600	-763.76868	33.72011	-634.32758	809.07764	38.17235	-627.50000	-680.70380	-13.88933	502.42017	736.70062	-12.85377	588.46796	19.42604	784.25403	-921.89551	
6162	61.610	-764.09222	34.38414	-634.33881	808.91022	38.59244	-627.23376	-680.96503	-14.15863	502.46588	736.43994	-12.95021	588.59253	19.04627	784.63660	-921.32196	
6163	61.620	-764.39240	34.58264	-634.29724	808.35089	39.32421	-627.18945	-681.09052	-14.23891	502.53021	736.13867	-13.17373	588.80585	18.70103	784.98633	-920.81927	
6164	61.630	-764.73346	34.52372	-634.12091	808.04730	39.46431	-627.14160	-681.61218	-14.47099	502.62381	735.73511	-13.65762	588.91632	18.46112	785.44922	-920.54608	
6165	61.640	-765.05420	34.86390	-634.10919	807.80206	39.57131	-627.06122	-681.96503	-14.96693	502.76184	735.37616	-14.01563	588.95392	18.02396	785.88879	-920.20374	
6166	61.650	-765.11749	35.33640	-634.06720	807.45178	39.87238	-627.03223	-682.37378	-15.23473	502.79727	735.12158	-14.19431	588.98590	17.56913	786.39709	-919.67285	
6167	61.660	-765.33514	35.81516	-633.99054	807.25256	40.33157	-626.96985	-682.56476	-15.28679	502.93585	734.81799	-14.34563	588.98273	17.39885	786.85101	-919.19403	
6168	61.670	-765.60327	35.82083	-633.98376	807.04620	40.57738	-626.81165	-682.85413	-15.39470	502.99924	734.53058	-14.46258	588.98694	17.16454	787.15106	-918.97778	
6169	61.680	-766.18689	35.96084	-633.93561	806.63470	40.70637	-626.81866	-683.20178	-15.63199	503.02557	734.09448	-14.69403	589.00525	16.81304	787.44873	-918.67853	
6170	61.690	-766.74628	36.39143	-633.81982	806.18060	40.94632	-626.72632	-683.52051	-15.81920	503.01788	733.78729	-14.90774	589.11627	16.46202	787.64368	-918.31775	
6171	61.700	-766.99310	36.78099	-633.77167	805.86139	41.09494	-626.73871	-683.90485	-16.04927	503.00821	733.49872	-15.08252	589.21149	16.14427	787.92371	-918.02594	
6172	61.710	-767.27429	36.99630	-633.65289	805.36279	41.41624	-626.72552	-684.32922	-16.13034	503.03690	733.15845	-15.18863	589.33417	15.67099	788.35706	-917.70935	
6173	61.720	-767.68457	37.12052	-633.50311	805.16309	41.63533	-626.60724	-684.63586	-16.21600	503.08755	732.82587	-15.36040	589.36121	15.30046	788.75116	-917.56360	
6174	61.730	-768.07513	37.18258	-633.45764	804.88666	41.75596	-626.59442	-684.84729	-16.32133	503.14429	732.52057	-15.58065	589.38214	15.10447	789.06995	-917.36987	
6175	61.740	-768.31079	37.33403	-633.41138	804.55200	42.00580	-626.59381	-685.12628	-16.58075	503.15741	732.35699	-15.78486	589.36340	14.85193	789.35089	-917.09137	
6176	61.750	-768.35895	37.75813	-633.49536	804.14148	42.23092	-626.60504	-685.56201	-16.75021	503.13025	731.96387	-16.00261	589.39612	14.41495	789.58948	-916.76801	
6177	61.760	-768.73364	38.16669	-633.34723	803.82111	42.41742	-626.50806	-685.82172	-16.74829	503.14127	731.60773	-16.03672	589.44171	14.13408	789.93109	-916.42975	
6178	61.770	-769.04602	38.10361	-633.20776	803.53851	42.64241	-626.35156	-686.04834	-16.82525	503.19009	731.19171	-16.15244	589.42126	14.09450	790.24591	-916.12549	
6179	61.780	-769.42377	38.09514	-633.24194	803.15271	42.83699	-626.26672	-686.39819	-16.92315	503.26431	730.89581	-16.25629	589.39783	13.77393	790.43347	-915.85431	
6180	61.790	-769.75934	38.23160	-633.27313	802.82751	43.04096	-626.17432	-686.75903	-17.02335	503.32764	730.52460	-16.69173	589.42157	13.25968	790.60974	-915.53821	
6181	61.800	-770.05420	38.61723	-633.27173	802.59534	43.03658	-626.21069	-687.04608	-17.27334	503.40518	730.33997	-16.81631	589.54150	13.00158	790.76898	-915.15527	
6182	61.810	-770.35193	39.08734	-633.25452	802.37305	43.16886	-626.13605	-687.37549	-17.42535	503.46457	730.02051	-16.86861	589.73932	12.70714	791.07349	-914.88434	
6183	61.820	-770.54340	39.26709	-633.22797	802.27356	43.35209	-625.96075	-687.59290	-17.45557	503.52597	729.82434	-16.94991	589.83472	12.48019	791.28198	-914.69891	
6184	61.830	-770.86902	39.31608	-633.08875	801.87415	43.64102	-625.86853	-687.85822	-17.48136	503.63672	729.53497	-17.14921	589.88025	12.05741	791.70203	-914.57227	
6185	61.840	-771.24731	39.33977	-633.08051	801.67993	43.68208	-625.79346	-688.16187	-17.69456	503.62723	729.31586	-17.40458	589.80072	11.88887	791.87714	-914.40979	
6186	61.850	-771.55426	39.46262	-632.96716	801.21802	43.74854	-625.83704	-688.54749	-17.86363	503.69312	729.02130	-17.62646	589.82385	11.52083	792.08801	-914.18243	
6187	61.860	-771.66418	39.44254	-632.92871	800.88007	43.91082	-625.83459	-688.65234	-18.06285	503.68655	728.79010	-17.62869	589.84680	11.26240	792.20490	-913.94348	
6188	61.870	-771.92120	39.55228	-632.79236	800.59802	44.11501	-625.78778	-688.78210	-18.28118	504.01370	728.46857	-17.59277	589.88336	10.86205	792.40918	-913.57928	
6189	61.880	-772.18317	39.53481	-632.78577	800.40503	44.22418	-625.70813	-689.03253	-18.20727	504.01886	728.22900	-17.67501	589.81732	10.63091	792.59863	-913.42072	
6190	61.890	-772.43372	39.58111	-632.73785	800.22919	44.27907	-625.66107	-689.41919	-18.13494	503.92673	727.85480	-17.86879	589.74005	10.43625	792.63055	-913.26599	
6191	61.900	-772.62750	39.59359	-632.78003	800.01971	44.33511	-625.69049	-689.81683	-18.30159	503.58087	727.64618	-17.95024	589.72949	10.29726	792.60382	-913.12329	
